  0
SECTION
  2
HEADER
  9
$ACADVER
  1
AC1014
  9
$HANDSEED
  5
FFFF
  9
$MEASUREMENT
 70
     1
  0
ENDSEC
  0
SECTION
  2
TABLES
  0
TABLE
  2
VPORT
  5
8
330
0
100
AcDbSymbolTable
 70
     4
  0
VPORT
  5
2E
330
8
100
AcDbSymbolTableRecord
100
AcDbViewportTableRecord
  2
*ACTIVE
 70
     0
 10
0.0
 20
0.0
 11
1.0
 21
1.0
 12
210.0
 22
148.5
 13
0.0
 23
0.0
 14
10.0
 24
10.0
 15
10.0
 25
10.0
 16
0.0
 26
0.0
 36
1.0
 17
0.0
 27
0.0
 37
0.0
 40
341.0
 41
1.24
 42
50.0
 43
0.0
 44
0.0
 50
0.0
 51
0.0
 71
     0
 72
   100
 73
     1
 74
     3
 75
     0
 76
     0
 77
     0
 78
     0
  0
ENDTAB
  0
TABLE
  2
LTYPE
  5
5
330
0
100
AcDbSymbolTable
 70
     1
  0
LTYPE
  5
14
330
5
100
AcDbSymbolTableRecord
100
AcDbLinetypeTableRecord
  2
BYBLOCK
 70
     0
  3

 72
    65
 73
     0
 40
0.0
  0
LTYPE
  5
15
330
5
100
AcDbSymbolTableRecord
100
AcDbLinetypeTableRecord
  2
BYLAYER
 70
     0
  3

 72
    65
 73
     0
 40
0.0
  0
LTYPE
  5
16
330
5
100
AcDbSymbolTableRecord
100
AcDbLinetypeTableRecord
  2
CONTINUOUS
 70
     0
  3
Solid line
 72
    65
 73
     0
 40
0.0
  0
ENDTAB
  0
TABLE
  2
LAYER
  5
2
100
AcDbSymbolTable
 70
5
  0
LAYER
  5
50
100
AcDbSymbolTableRecord
100
AcDbLayerTableRecord
  2
0
 70
0
  6
CONTINUOUS
  0
LAYER
  5
51
100
AcDbSymbolTableRecord
100
AcDbLayerTableRecord
  2
Background
 70
0
  6
CONTINUOUS
  0
LAYER
  5
52
100
AcDbSymbolTableRecord
100
AcDbLayerTableRecord
  2
Counter
 70
0
  6
CONTINUOUS
  0
LAYER
  5
53
100
AcDbSymbolTableRecord
100
AcDbLayerTableRecord
  2
Legs
 70
0
  6
CONTINUOUS
  0
LAYER
  5
54
100
AcDbSymbolTableRecord
100
AcDbLayerTableRecord
  2
Targets
 70
0
  6
CONTINUOUS
  0
ENDTAB
  0
TABLE
  2
STYLE
  5
3
330
0
100
AcDbSymbolTable
 70
     1
  0
STYLE
  5
11
330
3
100
AcDbSymbolTableRecord
100
AcDbTextStyleTableRecord
  2
STANDARD
 70
     0
 40
0.0
 41
1.0
 50
0.0
 71
     0
 42
2.5
  3
txt
  4

  0
ENDTAB
  0
TABLE
  2
VIEW
  5
6
330
0
100
AcDbSymbolTable
 70
     0
  0
ENDTAB
  0
TABLE
  2
UCS
  5
7
330
0
100
AcDbSymbolTable
 70
     0
  0
ENDTAB
  0
TABLE
  2
APPID
  5
9
330
0
100
AcDbSymbolTable
 70
     2
  0
APPID
  5
12
330
9
100
AcDbSymbolTableRecord
100
AcDbRegAppTableRecord
  2
ACAD
 70
     0
  0
ENDTAB
  0
TABLE
  2
DIMSTYLE
  5
A
330
0
100
AcDbSymbolTable
 70
     1
  0
DIMSTYLE
105
27
330
A
100
AcDbSymbolTableRecord
100
AcDbDimStyleTableRecord
  2
ISO-25
 70
     0
  3

  4

  5

  6

  7

 40
1.0
 41
2.5
 42
0.625
 43
3.75
 44
1.25
 45
0.0
 46
0.0
 47
0.0
 48
0.0
140
2.5
141
2.5
142
0.0
143
0.03937007874016
144
1.0
145
0.0
146
1.0
147
0.625
 71
     0
 72
     0
 73
     0
 74
     0
 75
     0
 76
     0
 77
     1
 78
     8
170
     0
171
     3
172
     1
173
     0
174
     0
175
     0
176
     0
177
     0
178
     0
270
     2
271
     2
272
     2
273
     2
274
     3
340
11
275
     0
280
     0
281
     0
282
     0
283
     0
284
     8
285
     0
286
     0
287
     3
288
     0
  0
ENDTAB
  0
TABLE
  2
BLOCK_RECORD
  5
1
330
0
100
AcDbSymbolTable
 70
     1
  0
BLOCK_RECORD
  5
1F
330
1
100
AcDbSymbolTableRecord
100
AcDbBlockTableRecord
  2
*MODEL_SPACE
  0
BLOCK_RECORD
  5
1B
330
1
100
AcDbSymbolTableRecord
100
AcDbBlockTableRecord
  2
*PAPER_SPACE
  0
ENDTAB
  0
ENDSEC
  0
SECTION
  2
BLOCKS
  0
BLOCK
  5
20
330
1F
100
AcDbEntity
  8
0
100
AcDbBlockBegin
  2
*MODEL_SPACE
 70
     0
 10
0.0
 20
0.0
 30
0.0
  3
*MODEL_SPACE
  1

  0
ENDBLK
  5
21
330
1F
100
AcDbEntity
  8
0
100
AcDbBlockEnd
  0
BLOCK
  5
1C
330
1B
100
AcDbEntity
 67
     1
  8
0
100
AcDbBlockBegin
  2
*PAPER_SPACE
  1

  0
ENDBLK
  5
1D
330
1B
100
AcDbEntity
 67
     1
  8
0
100
AcDbBlockEnd
  0
ENDSEC
  0
SECTION
  2
ENTITIES
  0
LWPOLYLINE
  5
100
100
AcDbEntity
  8
Background
 62
7
100
AcDbPolyline
 90
4
 70
1
 10
382.203968
 20
164.000845
 30
0.0
 10
385.054691
 20
164.000845
 30
0.0
 10
385.054691
 20
137.948558
 30
0.0
 10
382.203968
 20
137.948558
 30
0.0
  0
LWPOLYLINE
  5
101
100
AcDbEntity
  8
Background
 62
7
100
AcDbPolyline
 90
4
 70
1
 10
52.379746
 20
163.964395
 30
0.0
 10
55.230469
 20
163.964395
 30
0.0
 10
55.230469
 20
137.912109
 30
0.0
 10
52.379746
 20
137.912109
 30
0.0
  0
LWPOLYLINE
  5
102
100
AcDbEntity
  8
Background
 62
7
100
AcDbPolyline
 90
4
 70
1
 10
4.011741
 20
436.982983
 30
0.0
 10
441.793799
 20
436.982983
 30
0.0
 10
441.793799
 20
137.913801
 30
0.0
 10
4.011741
 20
137.913801
 30
0.0
  0
LWPOLYLINE
  5
103
100
AcDbEntity
  8
Counter
 62
7
100
AcDbPolyline
 90
4
 70
1
 10
60.478477
 20
376.891433
 30
0.0
 10
77.188321
 20
376.891433
 30
0.0
 10
77.188321
 20
368.056589
 30
0.0
 10
60.478477
 20
368.056589
 30
0.0
  0
LWPOLYLINE
  5
104
100
AcDbEntity
  8
Legs
 62
7
100
AcDbPolyline
 90
4
 70
1
 10
230.798947
 20
129.031823
 30
0.0
 10
441.053738
 20
129.031823
 30
0.0
 10
441.053738
 20
76.776217
 30
0.0
 10
230.798947
 20
76.776217
 30
0.0
  0
LWPOLYLINE
  5
105
100
AcDbEntity
  8
Legs
 62
7
100
AcDbPolyline
 90
4
 70
1
 10
290.936670
 20
102.837180
 30
0.0
 10
293.787394
 20
102.837180
 30
0.0
 10
293.787394
 20
76.784894
 30
0.0
 10
290.936670
 20
76.784894
 30
0.0
  0
LWPOLYLINE
  5
106
100
AcDbEntity
  8
Legs
 62
7
100
AcDbPolyline
 90
4
 70
1
 10
230.911740
 20
72.959198
 30
0.0
 10
441.166530
 20
72.959198
 30
0.0
 10
441.166530
 20
20.703592
 30
0.0
 10
230.911740
 20
20.703592
 30
0.0
  0
SPLINE
  5
107
100
AcDbEntity
  8
Targets
 62
1
100
AcDbSpline
 70
8
 71
3
 72
8
 73
4
 74
0
 40
0
 40
0
 40
0
 40
0
 40
1
 40
1
 40
1
 40
1
 10
408.435195
 20
259.341928
 30
0.0
 10
408.435194
 20
236.560183
 30
0.0
 10
389.966940
 20
218.091930
 30
0.0
 10
367.185195
 20
218.091930
 30
0.0
  0
SPLINE
  5
108
100
AcDbEntity
  8
Targets
 62
1
100
AcDbSpline
 70
8
 71
3
 72
8
 73
4
 74
0
 40
0
 40
0
 40
0
 40
0
 40
1
 40
1
 40
1
 40
1
 10
367.185195
 20
218.091930
 30
0.0
 10
344.403450
 20
218.091930
 30
0.0
 10
325.935196
 20
236.560183
 30
0.0
 10
325.935195
 20
259.341928
 30
0.0
  0
SPLINE
  5
109
100
AcDbEntity
  8
Targets
 62
1
100
AcDbSpline
 70
8
 71
3
 72
8
 73
4
 74
0
 40
0
 40
0
 40
0
 40
0
 40
1
 40
1
 40
1
 40
1
 10
325.935195
 20
259.341928
 30
0.0
 10
325.935195
 20
274.079134
 30
0.0
 10
333.797401
 20
287.696874
 30
0.0
 10
346.560195
 20
295.065476
 30
0.0
  0
SPLINE
  5
10a
100
AcDbEntity
  8
Targets
 62
1
100
AcDbSpline
 70
8
 71
3
 72
8
 73
4
 74
0
 40
0
 40
0
 40
0
 40
0
 40
1
 40
1
 40
1
 40
1
 10
346.560195
 20
295.065476
 30
0.0
 10
359.322989
 20
302.434079
 30
0.0
 10
375.047401
 20
302.434079
 30
0.0
 10
387.810195
 20
295.065476
 30
0.0
  0
SPLINE
  5
10b
100
AcDbEntity
  8
Targets
 62
1
100
AcDbSpline
 70
8
 71
3
 72
8
 73
4
 74
0
 40
0
 40
0
 40
0
 40
0
 40
1
 40
1
 40
1
 40
1
 10
387.810195
 20
295.065476
 30
0.0
 10
400.572989
 20
287.696874
 30
0.0
 10
408.435195
 20
274.079134
 30
0.0
 10
408.435195
 20
259.341928
 30
0.0
  0
LWPOLYLINE
  5
10c
100
AcDbEntity
  8
Legs
 62
7
100
AcDbPolyline
 90
4
 70
1
 10
291.049463
 20
46.764562
 30
0.0
 10
293.900186
 20
46.764562
 30
0.0
 10
293.900186
 20
20.712276
 30
0.0
 10
291.049463
 20
20.712276
 30
0.0
  0
SPLINE
  5
10d
100
AcDbEntity
  8
Targets
 62
7
100
AcDbSpline
 70
8
 71
3
 72
8
 73
4
 74
0
 40
0
 40
0
 40
0
 40
0
 40
1
 40
1
 40
1
 40
1
 10
305.489069
 20
333.151440
 30
0.0
 10
305.489069
 20
326.849351
 30
0.0
 10
302.126944
 20
321.025980
 30
0.0
 10
296.669174
 20
317.874935
 30
0.0
  0
SPLINE
  5
10e
100
AcDbEntity
  8
Targets
 62
7
100
AcDbSpline
 70
8
 71
3
 72
8
 73
4
 74
0
 40
0
 40
0
 40
0
 40
0
 40
1
 40
1
 40
1
 40
1
 10
296.669174
 20
317.874935
 30
0.0
 10
291.211405
 20
314.723890
 30
0.0
 10
284.487155
 20
314.723890
 30
0.0
 10
279.029386
 20
317.874935
 30
0.0
  0
SPLINE
  5
10f
100
AcDbEntity
  8
Targets
 62
7
100
AcDbSpline
 70
8
 71
3
 72
8
 73
4
 74
0
 40
0
 40
0
 40
0
 40
0
 40
1
 40
1
 40
1
 40
1
 10
279.029386
 20
317.874935
 30
0.0
 10
273.571616
 20
321.025980
 30
0.0
 10
270.209492
 20
326.849351
 30
0.0
 10
270.209492
 20
333.151440
 30
0.0
  0
SPLINE
  5
110
100
AcDbEntity
  8
Targets
 62
7
100
AcDbSpline
 70
8
 71
3
 72
8
 73
4
 74
0
 40
0
 40
0
 40
0
 40
0
 40
1
 40
1
 40
1
 40
1
 10
270.209492
 20
333.151440
 30
0.0
 10
270.209492
 20
339.453529
 30
0.0
 10
273.571616
 20
345.276900
 30
0.0
 10
279.029386
 20
348.427945
 30
0.0
  0
SPLINE
  5
111
100
AcDbEntity
  8
Targets
 62
7
100
AcDbSpline
 70
8
 71
3
 72
8
 73
4
 74
0
 40
0
 40
0
 40
0
 40
0
 40
1
 40
1
 40
1
 40
1
 10
279.029386
 20
348.427945
 30
0.0
 10
284.487155
 20
351.578990
 30
0.0
 10
291.211405
 20
351.578990
 30
0.0
 10
296.669174
 20
348.427945
 30
0.0
  0
SPLINE
  5
112
100
AcDbEntity
  8
Targets
 62
7
100
AcDbSpline
 70
8
 71
3
 72
8
 73
4
 74
0
 40
0
 40
0
 40
0
 40
0
 40
1
 40
1
 40
1
 40
1
 10
296.669174
 20
348.427945
 30
0.0
 10
302.126944
 20
345.276900
 30
0.0
 10
305.489069
 20
339.453529
 30
0.0
 10
305.489069
 20
333.151440
 30
0.0
  0
LWPOLYLINE
  5
113
100
AcDbEntity
  8
Targets
 62
1
100
AcDbPolyline
 90
1
 70
1
 10
408.435195
 20
259.341928
 30
0.0
  0
SPLINE
  5
114
100
AcDbEntity
  8
Targets
 62
1
100
AcDbSpline
 70
8
 71
3
 72
8
 73
4
 74
0
 40
0
 40
0
 40
0
 40
0
 40
1
 40
1
 40
1
 40
1
 10
255.641302
 20
271.745258
 30
0.0
 10
255.641302
 20
255.176716
 30
0.0
 10
242.209845
 20
241.745259
 30
0.0
 10
225.641302
 20
241.745259
 30
0.0
  0
SPLINE
  5
115
100
AcDbEntity
  8
Targets
 62
1
100
AcDbSpline
 70
8
 71
3
 72
8
 73
4
 74
0
 40
0
 40
0
 40
0
 40
0
 40
1
 40
1
 40
1
 40
1
 10
225.641302
 20
241.745259
 30
0.0
 10
209.072760
 20
241.745259
 30
0.0
 10
195.641303
 20
255.176716
 30
0.0
 10
195.641302
 20
271.745258
 30
0.0
  0
SPLINE
  5
116
100
AcDbEntity
  8
Targets
 62
1
100
AcDbSpline
 70
8
 71
3
 72
8
 73
4
 74
0
 40
0
 40
0
 40
0
 40
0
 40
1
 40
1
 40
1
 40
1
 10
195.641302
 20
271.745258
 30
0.0
 10
195.641303
 20
288.313800
 30
0.0
 10
209.072760
 20
301.745257
 30
0.0
 10
225.641302
 20
301.745257
 30
0.0
  0
SPLINE
  5
117
100
AcDbEntity
  8
Targets
 62
1
100
AcDbSpline
 70
8
 71
3
 72
8
 73
4
 74
0
 40
0
 40
0
 40
0
 40
0
 40
1
 40
1
 40
1
 40
1
 10
225.641302
 20
301.745257
 30
0.0
 10
242.209845
 20
301.745257
 30
0.0
 10
255.641302
 20
288.313800
 30
0.0
 10
255.641302
 20
271.745258
 30
0.0
  0
LWPOLYLINE
  5
118
100
AcDbEntity
  8
Targets
 62
7
100
AcDbPolyline
 90
1
 70
1
 10
305.489069
 20
333.151440
 30
0.0
  0
SPLINE
  5
119
100
AcDbEntity
  8
Targets
 62
7
100
AcDbSpline
 70
8
 71
3
 72
8
 73
4
 74
0
 40
0
 40
0
 40
0
 40
0
 40
1
 40
1
 40
1
 40
1
 10
220.779730
 20
365.756698
 30
0.0
 10
220.779730
 20
351.019492
 30
0.0
 10
212.917524
 20
337.401751
 30
0.0
 10
200.154729
 20
330.033148
 30
0.0
  0
SPLINE
  5
11a
100
AcDbEntity
  8
Targets
 62
7
100
AcDbSpline
 70
8
 71
3
 72
8
 73
4
 74
0
 40
0
 40
0
 40
0
 40
0
 40
1
 40
1
 40
1
 40
1
 10
200.154729
 20
330.033148
 30
0.0
 10
187.391934
 20
322.664545
 30
0.0
 10
171.667521
 20
322.664545
 30
0.0
 10
158.904726
 20
330.033148
 30
0.0
  0
SPLINE
  5
11b
100
AcDbEntity
  8
Targets
 62
7
100
AcDbSpline
 70
8
 71
3
 72
8
 73
4
 74
0
 40
0
 40
0
 40
0
 40
0
 40
1
 40
1
 40
1
 40
1
 10
158.904726
 20
330.033148
 30
0.0
 10
146.141931
 20
337.401751
 30
0.0
 10
138.279724
 20
351.019492
 30
0.0
 10
138.279724
 20
365.756698
 30
0.0
  0
SPLINE
  5
11c
100
AcDbEntity
  8
Targets
 62
7
100
AcDbSpline
 70
8
 71
3
 72
8
 73
4
 74
0
 40
0
 40
0
 40
0
 40
0
 40
1
 40
1
 40
1
 40
1
 10
138.279724
 20
365.756698
 30
0.0
 10
138.279724
 20
380.493905
 30
0.0
 10
146.141931
 20
394.111646
 30
0.0
 10
158.904726
 20
401.480249
 30
0.0
  0
SPLINE
  5
11d
100
AcDbEntity
  8
Targets
 62
7
100
AcDbSpline
 70
8
 71
3
 72
8
 73
4
 74
0
 40
0
 40
0
 40
0
 40
0
 40
1
 40
1
 40
1
 40
1
 10
158.904726
 20
401.480249
 30
0.0
 10
171.667521
 20
408.848852
 30
0.0
 10
187.391934
 20
408.848852
 30
0.0
 10
200.154729
 20
401.480249
 30
0.0
  0
SPLINE
  5
11e
100
AcDbEntity
  8
Targets
 62
7
100
AcDbSpline
 70
8
 71
3
 72
8
 73
4
 74
0
 40
0
 40
0
 40
0
 40
0
 40
1
 40
1
 40
1
 40
1
 10
200.154729
 20
401.480249
 30
0.0
 10
212.917524
 20
394.111646
 30
0.0
 10
220.779730
 20
380.493905
 30
0.0
 10
220.779730
 20
365.756699
 30
0.0
  0
LWPOLYLINE
  5
11f
100
AcDbEntity
  8
Targets
 62
1
100
AcDbPolyline
 90
1
 70
1
 10
255.641302
 20
271.745258
 30
0.0
  0
SPLINE
  5
120
100
AcDbEntity
  8
Targets
 62
1
100
AcDbSpline
 70
8
 71
3
 72
8
 73
4
 74
0
 40
0
 40
0
 40
0
 40
0
 40
1
 40
1
 40
1
 40
1
 10
406.048207
 20
374.043712
 30
0.0
 10
406.048207
 20
363.325745
 30
0.0
 10
400.330240
 20
353.421934
 30
0.0
 10
391.048207
 20
348.062950
 30
0.0
  0
SPLINE
  5
121
100
AcDbEntity
  8
Targets
 62
1
100
AcDbSpline
 70
8
 71
3
 72
8
 73
4
 74
0
 40
0
 40
0
 40
0
 40
0
 40
1
 40
1
 40
1
 40
1
 10
391.048207
 20
348.062950
 30
0.0
 10
381.766175
 20
342.703967
 30
0.0
 10
370.330240
 20
342.703967
 30
0.0
 10
361.048207
 20
348.062950
 30
0.0
  0
SPLINE
  5
122
100
AcDbEntity
  8
Targets
 62
1
100
AcDbSpline
 70
8
 71
3
 72
8
 73
4
 74
0
 40
0
 40
0
 40
0
 40
0
 40
1
 40
1
 40
1
 40
1
 10
361.048207
 20
348.062950
 30
0.0
 10
351.766175
 20
353.421934
 30
0.0
 10
346.048207
 20
363.325745
 30
0.0
 10
346.048207
 20
374.043712
 30
0.0
  0
SPLINE
  5
123
100
AcDbEntity
  8
Targets
 62
1
100
AcDbSpline
 70
8
 71
3
 72
8
 73
4
 74
0
 40
0
 40
0
 40
0
 40
0
 40
1
 40
1
 40
1
 40
1
 10
346.048207
 20
374.043712
 30
0.0
 10
346.048207
 20
384.761680
 30
0.0
 10
351.766175
 20
394.665491
 30
0.0
 10
361.048207
 20
400.024475
 30
0.0
  0
SPLINE
  5
124
100
AcDbEntity
  8
Targets
 62
1
100
AcDbSpline
 70
8
 71
3
 72
8
 73
4
 74
0
 40
0
 40
0
 40
0
 40
0
 40
1
 40
1
 40
1
 40
1
 10
361.048207
 20
400.024475
 30
0.0
 10
370.330240
 20
405.383458
 30
0.0
 10
381.766175
 20
405.383458
 30
0.0
 10
391.048207
 20
400.024475
 30
0.0
  0
SPLINE
  5
125
100
AcDbEntity
  8
Targets
 62
1
100
AcDbSpline
 70
8
 71
3
 72
8
 73
4
 74
0
 40
0
 40
0
 40
0
 40
0
 40
1
 40
1
 40
1
 40
1
 10
391.048207
 20
400.024475
 30
0.0
 10
400.330240
 20
394.665491
 30
0.0
 10
406.048207
 20
384.761680
 30
0.0
 10
406.048207
 20
374.043712
 30
0.0
  0
LWPOLYLINE
  5
126
100
AcDbEntity
  8
Targets
 62
7
100
AcDbPolyline
 90
1
 70
1
 10
220.779730
 20
365.756699
 30
0.0
  0
SPLINE
  5
127
100
AcDbEntity
  8
Targets
 62
7
100
AcDbSpline
 70
8
 71
3
 72
8
 73
4
 74
0
 40
0
 40
0
 40
0
 40
0
 40
1
 40
1
 40
1
 40
1
 10
219.949655
 20
365.838896
 30
0.0
 10
219.949655
 20
351.427632
 30
0.0
 10
212.261337
 20
338.111076
 30
0.0
 10
199.780817
 20
330.905445
 30
0.0
  0
SPLINE
  5
128
100
AcDbEntity
  8
Targets
 62
7
100
AcDbSpline
 70
8
 71
3
 72
8
 73
4
 74
0
 40
0
 40
0
 40
0
 40
0
 40
1
 40
1
 40
1
 40
1
 10
199.780817
 20
330.905445
 30
0.0
 10
187.300297
 20
323.699813
 30
0.0
 10
171.923663
 20
323.699813
 30
0.0
 10
159.443143
 20
330.905445
 30
0.0
  0
SPLINE
  5
129
100
AcDbEntity
  8
Targets
 62
7
100
AcDbSpline
 70
8
 71
3
 72
8
 73
4
 74
0
 40
0
 40
0
 40
0
 40
0
 40
1
 40
1
 40
1
 40
1
 10
159.443143
 20
330.905445
 30
0.0
 10
146.962623
 20
338.111076
 30
0.0
 10
139.274306
 20
351.427632
 30
0.0
 10
139.274306
 20
365.838895
 30
0.0
  0
SPLINE
  5
12a
100
AcDbEntity
  8
Targets
 62
7
100
AcDbSpline
 70
8
 71
3
 72
8
 73
4
 74
0
 40
0
 40
0
 40
0
 40
0
 40
1
 40
1
 40
1
 40
1
 10
139.274306
 20
365.838895
 30
0.0
 10
139.274306
 20
380.250159
 30
0.0
 10
146.962623
 20
393.566715
 30
0.0
 10
159.443143
 20
400.772346
 30
0.0
  0
SPLINE
  5
12b
100
AcDbEntity
  8
Targets
 62
7
100
AcDbSpline
 70
8
 71
3
 72
8
 73
4
 74
0
 40
0
 40
0
 40
0
 40
0
 40
1
 40
1
 40
1
 40
1
 10
159.443143
 20
400.772346
 30
0.0
 10
171.923663
 20
407.977978
 30
0.0
 10
187.300297
 20
407.977978
 30
0.0
 10
199.780817
 20
400.772346
 30
0.0
  0
SPLINE
  5
12c
100
AcDbEntity
  8
Targets
 62
7
100
AcDbSpline
 70
8
 71
3
 72
8
 73
4
 74
0
 40
0
 40
0
 40
0
 40
0
 40
1
 40
1
 40
1
 40
1
 10
199.780817
 20
400.772346
 30
0.0
 10
212.261337
 20
393.566715
 30
0.0
 10
219.949655
 20
380.250159
 30
0.0
 10
219.949655
 20
365.838896
 30
0.0
  0
LWPOLYLINE
  5
12d
100
AcDbEntity
  8
Targets
 62
1
100
AcDbPolyline
 90
1
 70
1
 10
406.048207
 20
374.043712
 30
0.0
  0
SPLINE
  5
12e
100
AcDbEntity
  8
Targets
 62
1
100
AcDbSpline
 70
8
 71
3
 72
8
 73
4
 74
0
 40
0
 40
0
 40
0
 40
0
 40
1
 40
1
 40
1
 40
1
 10
404.977295
 20
374.008163
 30
0.0
 10
404.977295
 20
363.588482
 30
0.0
 10
399.418461
 20
353.960301
 30
0.0
 10
390.394753
 20
348.750461
 30
0.0
  0
SPLINE
  5
12f
100
AcDbEntity
  8
Targets
 62
1
100
AcDbSpline
 70
8
 71
3
 72
8
 73
4
 74
0
 40
0
 40
0
 40
0
 40
0
 40
1
 40
1
 40
1
 40
1
 10
390.394753
 20
348.750461
 30
0.0
 10
381.371046
 20
343.540620
 30
0.0
 10
370.253379
 20
343.540620
 30
0.0
 10
361.229672
 20
348.750461
 30
0.0
  0
SPLINE
  5
130
100
AcDbEntity
  8
Targets
 62
1
100
AcDbSpline
 70
8
 71
3
 72
8
 73
4
 74
0
 40
0
 40
0
 40
0
 40
0
 40
1
 40
1
 40
1
 40
1
 10
361.229672
 20
348.750461
 30
0.0
 10
352.205964
 20
353.960301
 30
0.0
 10
346.647131
 20
363.588482
 30
0.0
 10
346.647131
 20
374.008163
 30
0.0
  0
SPLINE
  5
131
100
AcDbEntity
  8
Targets
 62
1
100
AcDbSpline
 70
8
 71
3
 72
8
 73
4
 74
0
 40
0
 40
0
 40
0
 40
0
 40
1
 40
1
 40
1
 40
1
 10
346.647131
 20
374.008163
 30
0.0
 10
346.647131
 20
384.427843
 30
0.0
 10
352.205964
 20
394.056024
 30
0.0
 10
361.229672
 20
399.265864
 30
0.0
  0
SPLINE
  5
132
100
AcDbEntity
  8
Targets
 62
1
100
AcDbSpline
 70
8
 71
3
 72
8
 73
4
 74
0
 40
0
 40
0
 40
0
 40
0
 40
1
 40
1
 40
1
 40
1
 10
361.229672
 20
399.265864
 30
0.0
 10
370.253379
 20
404.475705
 30
0.0
 10
381.371046
 20
404.475705
 30
0.0
 10
390.394753
 20
399.265864
 30
0.0
  0
SPLINE
  5
133
100
AcDbEntity
  8
Targets
 62
1
100
AcDbSpline
 70
8
 71
3
 72
8
 73
4
 74
0
 40
0
 40
0
 40
0
 40
0
 40
1
 40
1
 40
1
 40
1
 10
390.394753
 20
399.265864
 30
0.0
 10
399.418461
 20
394.056024
 30
0.0
 10
404.977295
 20
384.427843
 30
0.0
 10
404.977295
 20
374.008163
 30
0.0
  0
LWPOLYLINE
  5
134
100
AcDbEntity
  8
Targets
 62
7
100
AcDbPolyline
 90
1
 70
1
 10
219.949655
 20
365.838896
 30
0.0
  0
SPLINE
  5
135
100
AcDbEntity
  8
Targets
 62
7
100
AcDbSpline
 70
8
 71
3
 72
8
 73
4
 74
0
 40
0
 40
0
 40
0
 40
0
 40
1
 40
1
 40
1
 40
1
 10
304.614833
 20
333.219690
 30
0.0
 10
304.614833
 20
327.224554
 30
0.0
 10
301.416466
 20
321.684820
 30
0.0
 10
296.224527
 20
318.687253
 30
0.0
  0
SPLINE
  5
136
100
AcDbEntity
  8
Targets
 62
7
100
AcDbSpline
 70
8
 71
3
 72
8
 73
4
 74
0
 40
0
 40
0
 40
0
 40
0
 40
1
 40
1
 40
1
 40
1
 10
296.224527
 20
318.687253
 30
0.0
 10
291.032587
 20
315.689685
 30
0.0
 10
284.635853
 20
315.689685
 30
0.0
 10
279.443913
 20
318.687253
 30
0.0
  0
SPLINE
  5
137
100
AcDbEntity
  8
Targets
 62
7
100
AcDbSpline
 70
8
 71
3
 72
8
 73
4
 74
0
 40
0
 40
0
 40
0
 40
0
 40
1
 40
1
 40
1
 40
1
 10
279.443913
 20
318.687253
 30
0.0
 10
274.251974
 20
321.684820
 30
0.0
 10
271.053607
 20
327.224554
 30
0.0
 10
271.053607
 20
333.219690
 30
0.0
  0
SPLINE
  5
138
100
AcDbEntity
  8
Targets
 62
7
100
AcDbSpline
 70
8
 71
3
 72
8
 73
4
 74
0
 40
0
 40
0
 40
0
 40
0
 40
1
 40
1
 40
1
 40
1
 10
271.053607
 20
333.219690
 30
0.0
 10
271.053607
 20
339.214826
 30
0.0
 10
274.251974
 20
344.754560
 30
0.0
 10
279.443913
 20
347.752127
 30
0.0
  0
SPLINE
  5
139
100
AcDbEntity
  8
Targets
 62
7
100
AcDbSpline
 70
8
 71
3
 72
8
 73
4
 74
0
 40
0
 40
0
 40
0
 40
0
 40
1
 40
1
 40
1
 40
1
 10
279.443913
 20
347.752127
 30
0.0
 10
284.635853
 20
350.749695
 30
0.0
 10
291.032587
 20
350.749695
 30
0.0
 10
296.224527
 20
347.752127
 30
0.0
  0
SPLINE
  5
13a
100
AcDbEntity
  8
Targets
 62
7
100
AcDbSpline
 70
8
 71
3
 72
8
 73
4
 74
0
 40
0
 40
0
 40
0
 40
0
 40
1
 40
1
 40
1
 40
1
 10
296.224527
 20
347.752127
 30
0.0
 10
301.416466
 20
344.754560
 30
0.0
 10
304.614833
 20
339.214826
 30
0.0
 10
304.614833
 20
333.219690
 30
0.0
  0
LWPOLYLINE
  5
13b
100
AcDbEntity
  8
Targets
 62
1
100
AcDbPolyline
 90
1
 70
1
 10
404.977295
 20
374.008163
 30
0.0
  0
SPLINE
  5
13c
100
AcDbEntity
  8
Targets
 62
1
100
AcDbSpline
 70
8
 71
3
 72
8
 73
4
 74
0
 40
0
 40
0
 40
0
 40
0
 40
1
 40
1
 40
1
 40
1
 10
407.721680
 20
259.320602
 30
0.0
 10
407.721680
 20
244.909339
 30
0.0
 10
400.033362
 20
231.592783
 30
0.0
 10
387.552842
 20
224.387151
 30
0.0
  0
SPLINE
  5
13d
100
AcDbEntity
  8
Targets
 62
1
100
AcDbSpline
 70
8
 71
3
 72
8
 73
4
 74
0
 40
0
 40
0
 40
0
 40
0
 40
1
 40
1
 40
1
 40
1
 10
387.552842
 20
224.387151
 30
0.0
 10
375.072322
 20
217.181520
 30
0.0
 10
359.695688
 20
217.181520
 30
0.0
 10
347.215168
 20
224.387151
 30
0.0
  0
SPLINE
  5
13e
100
AcDbEntity
  8
Targets
 62
1
100
AcDbSpline
 70
8
 71
3
 72
8
 73
4
 74
0
 40
0
 40
0
 40
0
 40
0
 40
1
 40
1
 40
1
 40
1
 10
347.215168
 20
224.387151
 30
0.0
 10
334.734648
 20
231.592783
 30
0.0
 10
327.046331
 20
244.909339
 30
0.0
 10
327.046331
 20
259.320602
 30
0.0
  0
SPLINE
  5
13f
100
AcDbEntity
  8
Targets
 62
1
100
AcDbSpline
 70
8
 71
3
 72
8
 73
4
 74
0
 40
0
 40
0
 40
0
 40
0
 40
1
 40
1
 40
1
 40
1
 10
327.046331
 20
259.320602
 30
0.0
 10
327.046331
 20
273.731865
 30
0.0
 10
334.734648
 20
287.048422
 30
0.0
 10
347.215168
 20
294.254053
 30
0.0
  0
SPLINE
  5
140
100
AcDbEntity
  8
Targets
 62
1
100
AcDbSpline
 70
8
 71
3
 72
8
 73
4
 74
0
 40
0
 40
0
 40
0
 40
0
 40
1
 40
1
 40
1
 40
1
 10
347.215168
 20
294.254053
 30
0.0
 10
359.695688
 20
301.459685
 30
0.0
 10
375.072322
 20
301.459685
 30
0.0
 10
387.552842
 20
294.254053
 30
0.0
  0
SPLINE
  5
141
100
AcDbEntity
  8
Targets
 62
1
100
AcDbSpline
 70
8
 71
3
 72
8
 73
4
 74
0
 40
0
 40
0
 40
0
 40
0
 40
1
 40
1
 40
1
 40
1
 10
387.552842
 20
294.254053
 30
0.0
 10
400.033362
 20
287.048422
 30
0.0
 10
407.721680
 20
273.731865
 30
0.0
 10
407.721680
 20
259.320602
 30
0.0
  0
LWPOLYLINE
  5
142
100
AcDbEntity
  8
Targets
 62
7
100
AcDbPolyline
 90
1
 70
1
 10
304.614833
 20
333.219690
 30
0.0
  0
SPLINE
  5
143
100
AcDbEntity
  8
Targets
 62
1
100
AcDbSpline
 70
8
 71
3
 72
8
 73
4
 74
0
 40
0
 40
0
 40
0
 40
0
 40
1
 40
1
 40
1
 40
1
 10
254.974384
 20
271.569557
 30
0.0
 10
254.974384
 20
261.149877
 30
0.0
 10
249.415551
 20
251.521695
 30
0.0
 10
240.391844
 20
246.311855
 30
0.0
  0
SPLINE
  5
144
100
AcDbEntity
  8
Targets
 62
1
100
AcDbSpline
 70
8
 71
3
 72
8
 73
4
 74
0
 40
0
 40
0
 40
0
 40
0
 40
1
 40
1
 40
1
 40
1
 10
240.391844
 20
246.311855
 30
0.0
 10
231.368136
 20
241.102015
 30
0.0
 10
220.250469
 20
241.102015
 30
0.0
 10
211.226762
 20
246.311855
 30
0.0
  0
SPLINE
  5
145
100
AcDbEntity
  8
Targets
 62
1
100
AcDbSpline
 70
8
 71
3
 72
8
 73
4
 74
0
 40
0
 40
0
 40
0
 40
0
 40
1
 40
1
 40
1
 40
1
 10
211.226762
 20
246.311855
 30
0.0
 10
202.203054
 20
251.521695
 30
0.0
 10
196.644221
 20
261.149877
 30
0.0
 10
196.644221
 20
271.569557
 30
0.0
  0
SPLINE
  5
146
100
AcDbEntity
  8
Targets
 62
1
100
AcDbSpline
 70
8
 71
3
 72
8
 73
4
 74
0
 40
0
 40
0
 40
0
 40
0
 40
1
 40
1
 40
1
 40
1
 10
196.644221
 20
271.569557
 30
0.0
 10
196.644221
 20
281.989237
 30
0.0
 10
202.203054
 20
291.617419
 30
0.0
 10
211.226762
 20
296.827259
 30
0.0
  0
SPLINE
  5
147
100
AcDbEntity
  8
Targets
 62
1
100
AcDbSpline
 70
8
 71
3
 72
8
 73
4
 74
0
 40
0
 40
0
 40
0
 40
0
 40
1
 40
1
 40
1
 40
1
 10
211.226762
 20
296.827259
 30
0.0
 10
220.250469
 20
302.037099
 30
0.0
 10
231.368136
 20
302.037099
 30
0.0
 10
240.391844
 20
296.827259
 30
0.0
  0
SPLINE
  5
148
100
AcDbEntity
  8
Targets
 62
1
100
AcDbSpline
 70
8
 71
3
 72
8
 73
4
 74
0
 40
0
 40
0
 40
0
 40
0
 40
1
 40
1
 40
1
 40
1
 10
240.391844
 20
296.827259
 30
0.0
 10
249.415551
 20
291.617419
 30
0.0
 10
254.974384
 20
281.989237
 30
0.0
 10
254.974384
 20
271.569557
 30
0.0
  0
LWPOLYLINE
  5
149
100
AcDbEntity
  8
Targets
 62
1
100
AcDbPolyline
 90
1
 70
1
 10
407.721680
 20
259.320602
 30
0.0
  0
LWPOLYLINE
  5
14a
100
AcDbEntity
  8
Targets
 62
1
100
AcDbPolyline
 90
1
 70
1
 10
254.974384
 20
271.569557
 30
0.0
  0
ENDSEC
  0
SECTION
  2
OBJECTS
  0
DICTIONARY
  5
C
330
0
100
AcDbDictionary
  3
ACAD_GROUP
350
D
  3
ACAD_MLINESTYLE
350
17
  0
DICTIONARY
  5
D
330
C
100
AcDbDictionary
  0
DICTIONARY
  5
1A
330
C
100
AcDbDictionary
  0
DICTIONARY
  5
17
330
C
100
AcDbDictionary
  3
STANDARD
350
18
  0
DICTIONARY
  5
19
330
C
100
AcDbDictionary
  0
ENDSEC
  0
EOF
